<?xml version="1.0" encoding="utf-8"?>
<!-- Generator: Adobe Illustrator 22.0.1, SVG Export Plug-In . SVG Version: 6.00 Build 0)  -->
<svg version="1.1" id="Layer_1" xmlns="http://www.w3.org/2000/svg" xmlns:xlink="http://www.w3.org/1999/xlink" x="0px" y="0px"
	 viewBox="0 0 288 64" style="enable-background:new 0 0 288 64;" xml:space="preserve">
<style type="text/css">
	.st0{fill:#27588A;}
	.st1{fill:#4F9ED6;}
	.st2{fill:none;}
	.st3{fill:#8D8F91;}
</style>
<g>
	<path class="st0" d="M122.24489,12.62833h-3.40858V9.68447h3.46004V2.50596h3.46004v7.17851h6.50748v2.94385h-6.50748v13.22082
		c0,6.09378,3.87353,6.86862,5.83579,6.86862c0.72316,0,1.18811-0.10337,1.18811-0.10337v3.15037
		c0,0-0.61978,0.10315-1.49777,0.10315c-2.99554,0-9.03763-0.98114-9.03763-9.65741V12.62833z"/>
</g>
<g>
	<path class="st0" d="M75.50481,12.62833h-3.40858V9.68447h3.46004V2.50596h3.46004v7.17851h6.50748v2.94385h-6.50748v13.22082
		c0,6.09378,3.87353,6.86862,5.83579,6.86862c0.72315,0,1.1881-0.10337,1.1881-0.10337v3.15037c0,0-0.61978,0.10315-1.49777,0.10315
		c-2.99554,0-9.03763-0.98114-9.03763-9.65741V12.62833z"/>
</g>
<path class="st0" d="M28.02056,1.61858v34.21443h-3.23674v-4.43827h-0.09263c-1.20197,1.81863-2.72033,3.11368-4.55417,3.88337
	c-1.83429,0.77059-3.59921,1.15633-5.29388,1.15633c-3.9147,0-7.15949-1.29505-9.73259-3.88427
	C2.53655,29.96097,1.25,26.81731,1.25,23.11831c0-3.54417,1.27134-6.6348,3.81446-9.27033
	c2.54267-2.6353,5.80223-3.95296,9.77868-3.95296c1.72599,0,3.49092,0.38574,5.29388,1.15588
	c1.80341,0.77081,3.32132,2.0502,4.55417,3.8375h0.09263V1.61858H28.02056z M4.48629,23.25703
	c0,2.86666,0.96301,5.29433,2.88993,7.2821c1.92602,1.98823,4.41544,2.98211,7.46692,2.98211
	c2.77403,0,5.15516-0.98584,7.14338-2.95885c1.98823-1.97256,2.98211-4.42305,2.98211-7.35147
	c0-2.83533-0.97062-5.27822-2.91275-7.32842c-1.94169-2.04953-4.34608-3.07475-7.21274-3.07475s-5.30999,0.96368-7.3282,2.88971
	C5.4954,17.62417,4.48629,20.1438,4.48629,23.25703z"/>
<path class="st0" d="M34.12351,7.44431V1.61858h3.23629v5.82573H34.12351z M34.12351,35.83301V10.54232h3.23629v25.29069H34.12351z"
	/>
<path class="st0" d="M64.87007,28.38936h3.56028c-2.77403,5.36324-6.96662,8.04508-12.57598,8.04508
	c-3.88382,0-7.12056-1.30221-9.70977-3.90709c-2.58921-2.60443-3.88382-5.71005-3.88382-9.31642
	c0-3.66768,1.32504-6.80396,3.97645-9.40905c2.65052-2.60443,5.85593-3.90687,9.61714-3.90687
	c2.52701,0,4.97034,0.67818,7.3282,2.03432c2.35786,1.35658,4.10712,3.43722,5.24779,6.2419h-3.56028
	c-0.95585-1.7873-2.2424-3.12822-3.86055-4.02254c-1.61814-0.89365-3.3061-1.34092-5.06297-1.34092
	c-2.6814,0-5.09385,0.94064-7.23601,2.82034c-2.14261,1.8806-3.21302,4.37696-3.21302,7.49019
	c0,2.89754,0.99389,5.35608,2.98212,7.37473c1.98822,2.0191,4.47675,3.02821,7.46692,3.02821
	c2.34219,0,4.24584-0.52357,5.71005-1.57161C63.12036,30.90161,64.19167,29.71485,64.87007,28.38936z"/>
<path class="st0" d="M114.66564,10.54232v25.29069h-3.23673v-4.43827h-0.09264c-1.23285,1.84906-2.75881,3.15216-4.57699,3.90664
	c-1.81907,0.75537-3.57639,1.13306-5.27106,1.13306c-3.9147,0-7.15949-1.29505-9.73259-3.88427
	c-2.574-2.58921-3.861-5.73287-3.861-9.43187c0-3.54417,1.27178-6.6348,3.8149-9.27033
	c2.54267-2.6353,5.80224-3.95296,9.77869-3.95296c1.75687,0,3.53701,0.37769,5.34042,1.13261
	c1.80296,0.75582,3.30566,2.07347,4.50763,3.95318h0.09264v-4.43849H114.66564z M91.13138,23.25703
	c0,2.86666,0.96301,5.29433,2.88993,7.2821c1.92603,1.98823,4.41544,2.98211,7.46692,2.98211
	c2.77402,0,5.15515-0.98584,7.14338-2.95885c1.98823-1.97256,2.98212-4.42305,2.98212-7.35147
	c0-2.83533-0.97062-5.27822-2.91275-7.32842c-1.94169-2.04953-4.34608-3.07475-7.21275-3.07475s-5.30999,0.96368-7.32819,2.88971
	C92.14048,17.62417,91.13138,20.1438,91.13138,23.25703z"/>
<path class="st0" d="M136.21078,7.44431V1.61858h3.2363v5.82573H136.21078z M136.21078,35.83301V10.54232h3.2363v25.29069H136.21078
	z"/>
<path class="st0" d="M144.39415,23.34966c0-3.85294,1.32504-7.05836,3.97646-9.61714c2.65051-2.55811,5.71721-3.8375,9.20096-3.8375
	c3.66768,0,6.79657,1.32548,9.38579,3.97623c2.58922,2.65119,3.88382,5.74898,3.88382,9.29315
	c0,3.51419-1.28745,6.60504-3.86055,9.27033c-2.57399,2.66663-5.71005,3.99972-9.40906,3.99972
	c-3.63724,0-6.74332-1.30982-9.31642-3.92991C145.68115,29.88489,144.39415,26.83297,144.39415,23.34966z M147.63089,23.30312
	c0,2.86666,0.9939,5.28672,2.98212,7.25928c1.98822,1.97301,4.32326,2.95885,7.00465,2.95885
	c2.61964,0,4.93947-0.96301,6.95857-2.88948c2.01865-1.92602,3.02864-4.46198,3.02864-7.60609
	c0-3.08146-1.05609-5.55522-3.16737-7.4206c-2.11172-1.86472-4.38501-2.7973-6.81984-2.7973
	c-2.52745,0-4.82445,0.96368-6.88875,2.88971C148.66327,17.62417,147.63089,20.15901,147.63089,23.30312z"/>
<path class="st0" d="M175.74214,35.83301V10.54232h3.2363v3.23652h0.09264c0.6162-0.98628,1.58727-1.87993,2.91275-2.68184
	c1.32503-0.80102,2.94318-1.20197,4.85489-1.20197c3.26671,0,5.93335,1.03304,7.99899,3.09779
	c2.09561,2.03432,3.14365,5.00927,3.14365,8.92352v13.91668h-3.23628V21.91633c0-3.08191-0.80191-5.39389-2.4044-6.93552
	c-1.47942-1.44855-3.31371-2.17304-5.50195-2.17304c-2.18916,0-4.02255,0.7245-5.50197,2.17304
	c-1.60338,1.57205-2.38919,3.88404-2.35831,6.93552v13.91668H175.74214z"/>
<path class="st1" d="M202.88144,23.34966c0-3.85294,1.32504-7.05836,3.97646-9.61714c2.65051-2.55811,5.71721-3.8375,9.20096-3.8375
	c3.66768,0,6.79659,1.32548,9.38579,3.97623c2.58922,2.65119,3.88382,5.74898,3.88382,9.29315
	c0,3.51419-1.28745,6.60504-3.86055,9.27033c-2.57399,2.66663-5.71005,3.99972-9.40906,3.99972
	c-3.63724,0-6.74332-1.30982-9.31642-3.92991C204.16844,29.88489,202.88144,26.83297,202.88144,23.34966z M206.11818,23.30312
	c0,2.86666,0.9939,5.28672,2.98212,7.25928c1.98822,1.97301,4.32326,2.95885,7.00465,2.95885
	c2.61964,0,4.93947-0.96301,6.95857-2.88948c2.01865-1.92602,3.02864-4.46198,3.02864-7.60609
	c0-3.08146-1.05609-5.55522-3.16737-7.4206c-2.11172-1.86472-4.38501-2.7973-6.81984-2.7973
	c-2.52745,0-4.82445,0.96368-6.88875,2.88971C207.15056,17.62417,206.11818,20.15901,206.11818,23.30312z"/>
<path class="st1" d="M234.22943,35.83301V10.54232h3.2363v3.23652h0.09264c0.6162-0.98628,1.58727-1.87993,2.91275-2.68184
	c1.32503-0.80102,2.94318-1.20197,4.85489-1.20197c3.26672,0,5.93335,1.03304,7.99899,3.09779
	c2.09561,2.03432,3.14366,5.00927,3.14366,8.92352v13.91668h-3.2363V21.91633c0-3.08191-0.80191-5.39389-2.4044-6.93552
	c-1.47942-1.44855-3.31371-2.17304-5.50195-2.17304c-2.18916,0-4.02255,0.7245-5.50197,2.17304
	c-1.60338,1.57205-2.38918,3.88404-2.35831,6.93552v13.91668H234.22943z"/>
<path class="st1" d="M287.5383,24.36682h-23.02545c0.12305,2.46615,1.16348,4.60831,3.12128,6.42649
	c1.95691,1.81952,4.18408,2.72794,6.68066,2.72794c2.21957-0.03043,4.1304-0.61576,5.73334-1.75687
	c1.60248-1.14022,2.71225-2.54267,3.32892-4.20736h3.42154c-0.89407,2.58921-2.4733,4.71616-4.73898,6.3804
	c-2.26566,1.66468-4.8316,2.49702-7.69827,2.49702c-3.57593,0-6.66589-1.27894-9.27032-3.83772
	c-2.60532-2.55789-3.90707-5.68678-3.90707-9.38578c0-3.60682,1.27176-6.71155,3.81445-9.31665
	c2.54312-2.60443,5.64828-3.93729,9.31641-3.99927c2.55835,0.03088,4.82401,0.67035,6.79703,1.91864
	c1.97211,1.24851,3.46765,2.76687,4.4848,4.55417C287.07605,18.71092,287.72357,21.3771,287.5383,24.36682z M264.51285,21.45407
	h19.74307c-0.46271-2.77448-1.66467-4.90836-3.60681-6.40389c-1.94168-1.49464-4.03821-2.2424-6.28778-2.2424
	c-2.21957,0-4.30804,0.74777-6.26492,2.2424C266.13858,16.54571,264.94421,18.67959,264.51285,21.45407z"/>
<g>
	<path class="st0" d="M17.49009,21.45892c0.00005,0.70463,0.00295,1.40927-0.00054,2.11388
		c-0.00793,1.59936-1.28986,2.85324-2.91186,2.85157c-1.59565-0.00163-2.88237-1.25951-2.88866-2.83423
		c-0.00573-1.43582-0.00689-2.87171,0.00036-4.30752c0.00789-1.56347,1.30779-2.81334,2.91084-2.8117
		c1.57577,0.00161,2.87516,1.25561,2.8887,2.79435C17.49537,19.99644,17.49004,20.72771,17.49009,21.45892z M13.01993,21.44785
		c0,0.65121-0.00469,1.30247,0.00112,1.95364c0.00838,0.93967,0.6942,1.67922,1.55815,1.6895
		c0.85395,0.01016,1.57073-0.73863,1.57665-1.66998c0.00837-1.31567,0.0084-2.63147-0.00001-3.94714
		c-0.00595-0.93118-0.7233-1.68015-1.57704-1.66957c-0.86415,0.01071-1.54943,0.75006-1.55776,1.68991
		C13.01527,20.14538,13.01993,20.79664,13.01993,21.44785z"/>
	<path class="st0" d="M19.72495,23.80804c-0.03387,2.21384-1.80817,4.30484-4.06406,4.74776
		c-0.34425,0.06759-0.43848,0.19966-0.41117,0.52088c0.02468,0.29025,0.01509,0.58485,0.00107,0.87659
		c-0.01873,0.38974-0.29018,0.62893-0.68003,0.62122c-0.3687-0.00729-0.62715-0.24405-0.64318-0.61775
		c-0.01479-0.34495-0.01577-0.69148-0.00079-1.03635c0.00959-0.22072-0.0892-0.29887-0.28883-0.3434
		c-2.3231-0.51814-3.68857-1.96853-4.14247-4.29034c-0.04535-0.23199-0.04128-0.47591-0.04027-0.7142
		c0.00187-0.44003,0.23695-0.69928,0.62819-0.71424c0.42276-0.01617,0.67411,0.22887,0.70105,0.68347
		c0.10978,1.85227,1.21602,3.23291,2.93772,3.6664c2.12516,0.53507,4.33018-0.97333,4.60566-3.15024
		c0.01996-0.15778,0.05268-0.31449,0.06344-0.47278c0.03366-0.49528,0.26713-0.74181,0.69961-0.72693
		c0.40755,0.01402,0.62835,0.27514,0.63426,0.75057C19.72598,23.67513,19.72527,23.74158,19.72495,23.80804z"/>
</g>
<g>
	<rect x="39.87762" y="47.71688" class="st2" width="248.12238" height="61.85823"/>
	<path class="st3" d="M41.18701,57.70605l0.36572-2.75781h-1.15381v-0.83008h1.28027l0.26709-2.04004h-1.20947v-0.8291h1.33643
		l0.36572-2.6875h0.81592l-0.35156,2.6875h1.46289l0.36572-2.6875h0.83008l-0.35156,2.6875h1.15381v0.8291h-1.28027
		l-0.25342,2.04004h1.20996v0.83008H44.7041l-0.36572,2.75781h-0.84424l0.36572-2.75781h-1.46338l-0.36572,2.75781H41.18701z
		 M43.98633,54.11816l0.26758-2.04004h-1.46338l-0.26709,2.04004H43.98633z"/>
	<path class="st3" d="M50.19043,49.71484h-0.02832l-1.58984,0.8584l-0.23926-0.94238l1.99805-1.06934h1.05518v9.14453h-1.1958
		V49.71484z"/>
	<path class="st3" d="M59.4751,48.9834c0.01416,0.42188-0.29541,0.75977-0.78809,0.75977
		c-0.43604,0-0.74561-0.33789-0.74561-0.75977c0-0.43555,0.32373-0.77344,0.77393-0.77344
		C59.17969,48.20996,59.4751,48.54785,59.4751,48.9834z M58.09619,57.70605v-6.80957h1.23828v6.80957H58.09619z"/>
	<path class="st3" d="M61.38818,52.74023c0-0.7041-0.01416-1.28027-0.05615-1.84375h1.09717L62.5,52.02246h0.02783
		c0.33789-0.64746,1.12549-1.28027,2.25098-1.28027c0.94287,0,2.40576,0.5625,2.40576,2.89844v4.06543h-1.23779v-3.9248
		c0-1.09766-0.4082-2.01172-1.57568-2.01172c-0.81641,0-1.44922,0.57617-1.66016,1.26563
		c-0.05664,0.15527-0.08447,0.36621-0.08447,0.57715v4.09375h-1.23828V52.74023z"/>
	<path class="st3" d="M78.05908,47.71777v8.22949c0,0.60547,0.01416,1.29492,0.05615,1.75879h-1.11133l-0.05615-1.18164h-0.02832
		c-0.37988,0.75977-1.20996,1.33594-2.32129,1.33594c-1.646,0-2.91211-1.39258-2.91211-3.45996
		c-0.01416-2.26563,1.39258-3.6582,3.05273-3.6582c1.04102,0,1.74463,0.49219,2.0542,1.04102h0.02783v-4.06543H78.05908z
		 M76.8208,53.66797c0-0.1543-0.01367-0.36523-0.05615-0.52051c-0.18262-0.78711-0.85791-1.43457-1.78662-1.43457
		c-1.28027,0-2.04004,1.125-2.04004,2.63086c0,1.37891,0.67529,2.51855,2.01172,2.51855c0.83008,0,1.58984-0.54883,1.81494-1.47754
		c0.04248-0.16895,0.05615-0.33789,0.05615-0.53418V53.66797z"/>
	<path class="st3" d="M81.49121,48.9834c0.01416,0.42188-0.29541,0.75977-0.78809,0.75977
		c-0.43604,0-0.74561-0.33789-0.74561-0.75977c0-0.43555,0.32373-0.77344,0.77393-0.77344
		C81.1958,48.20996,81.49121,48.54785,81.49121,48.9834z M80.1123,57.70605v-6.80957h1.23828v6.80957H80.1123z"/>
	<path class="st3" d="M88.2583,57.45313c-0.32373,0.16895-1.0415,0.39355-1.95557,0.39355
		c-2.0542,0-3.39063-1.39258-3.39063-3.47461c0-2.09668,1.43506-3.61621,3.65771-3.61621c0.73145,0,1.37891,0.18359,1.71631,0.35156
		l-0.28125,0.95703c-0.29541-0.16895-0.75977-0.32324-1.43506-0.32324c-1.56152,0-2.40576,1.15332-2.40576,2.57422
		c0,1.57617,1.01318,2.54688,2.36377,2.54688c0.70313,0,1.16748-0.18359,1.51904-0.33789L88.2583,57.45313z"/>
	<path class="st3" d="M91.38037,48.94141v1.95508h1.77295v0.94336h-1.77295v3.67188c0,0.84375,0.23926,1.32227,0.92871,1.32227
		c0.32373,0,0.56299-0.04199,0.71729-0.08496l0.05664,0.92871c-0.23926,0.09863-0.61914,0.16895-1.09766,0.16895
		c-0.57666,0-1.04102-0.18262-1.33643-0.52051c-0.35156-0.36621-0.47803-0.9707-0.47803-1.77246v-3.71387h-1.05518v-0.94336h1.05518
		v-1.63184L91.38037,48.94141z"/>
	<path class="st3" d="M98.31592,57.70605l-0.09863-0.8584h-0.04199c-0.37988,0.53516-1.11133,1.0127-2.08203,1.0127
		c-1.37891,0-2.08252-0.9707-2.08252-1.95508c0-1.64648,1.46338-2.54688,4.09424-2.53223v-0.14063
		c0-0.5625-0.15479-1.57617-1.54736-1.57617c-0.6333,0-1.29443,0.19727-1.77295,0.50684l-0.28125-0.81641
		c0.5625-0.36523,1.37842-0.60449,2.23682-0.60449c2.08203,0,2.58887,1.4209,2.58887,2.78516v2.54688
		c0,0.59082,0.02783,1.16797,0.1123,1.63184H98.31592z M98.13281,54.23145c-1.35059-0.02832-2.88379,0.21094-2.88379,1.5332
		c0,0.80176,0.53467,1.18164,1.16748,1.18164c0.88672,0,1.44922-0.5625,1.646-1.13965
		c0.04248-0.12695,0.07031-0.26758,0.07031-0.39355V54.23145z"/>
	<path class="st3" d="M102.76123,48.94141v1.95508h1.77295v0.94336h-1.77295v3.67188c0,0.84375,0.23926,1.32227,0.92871,1.32227
		c0.32373,0,0.56299-0.04199,0.71729-0.08496l0.05664,0.92871c-0.23926,0.09863-0.61914,0.16895-1.09766,0.16895
		c-0.57666,0-1.04102-0.18262-1.33643-0.52051c-0.35156-0.36621-0.47803-0.9707-0.47803-1.77246v-3.71387h-1.05518v-0.94336h1.05518
		v-1.63184L102.76123,48.94141z"/>
	<path class="st3" d="M107.30518,48.9834c0.01416,0.42188-0.29541,0.75977-0.78809,0.75977
		c-0.43604,0-0.74561-0.33789-0.74561-0.75977c0-0.43555,0.32373-0.77344,0.77393-0.77344
		C107.00977,48.20996,107.30518,48.54785,107.30518,48.9834z M105.92627,57.70605v-6.80957h1.23828v6.80957H105.92627z"/>
	<path class="st3" d="M115.38037,54.24512c0,2.51855-1.74463,3.61523-3.39063,3.61523c-1.84277,0-3.26367-1.35059-3.26367-3.50293
		c0-2.2793,1.49121-3.61523,3.37646-3.61523C114.05811,50.74219,115.38037,52.16309,115.38037,54.24512z M109.97803,54.31543
		c0,1.49121,0.8584,2.61719,2.06836,2.61719c1.18164,0,2.06787-1.11133,2.06787-2.64551c0-1.15332-0.57666-2.61621-2.04004-2.61621
		C110.61133,51.6709,109.97803,53.02148,109.97803,54.31543z"/>
	<path class="st3" d="M116.94141,52.74023c0-0.7041-0.01367-1.28027-0.05615-1.84375h1.09717l0.07031,1.12598h0.02832
		c0.33789-0.64746,1.12549-1.28027,2.25098-1.28027c0.94287,0,2.40576,0.5625,2.40576,2.89844v4.06543H121.5v-3.9248
		c0-1.09766-0.4082-2.01172-1.57568-2.01172c-0.81641,0-1.44922,0.57617-1.66016,1.26563
		c-0.05664,0.15527-0.08447,0.36621-0.08447,0.57715v4.09375h-1.23828V52.74023z"/>
	<path class="st3" d="M133.71094,57.70605c-0.26758-0.26758-0.52051-0.53418-0.88672-0.92871
		c-0.81592,0.75977-1.73047,1.08301-2.77148,1.08301c-1.84277,0-2.91211-1.2373-2.91211-2.6582
		c0-1.29492,0.77393-2.18066,1.85693-2.77148V52.3877c-0.49219-0.61816-0.7876-1.30762-0.7876-1.9834
		c0-1.15332,0.83008-2.33496,2.40576-2.33496c1.18164,0,2.09619,0.78711,2.09619,2.01172c0,0.99902-0.57666,1.78613-2.08203,2.53223
		v0.04199c0.80176,0.92871,1.70215,1.96973,2.30713,2.64551c0.43604-0.66211,0.73145-1.57617,0.91455-2.77148h1.12549
		c-0.25342,1.49121-0.66113,2.67285-1.36475,3.50293c0.50635,0.53418,0.99902,1.06934,1.56152,1.67383H133.71094z
		 M132.21973,56.07422c-0.56299-0.61914-1.61816-1.77246-2.67334-2.98242c-0.50635,0.32324-1.22412,0.92871-1.22412,1.92676
		c0,1.08398,0.80225,1.91406,1.94189,1.91406C131.08008,56.93262,131.76953,56.56641,132.21973,56.07422z M129.33545,50.29199
		c0,0.6748,0.30957,1.19531,0.71729,1.70215c0.95703-0.54883,1.57568-1.05469,1.57568-1.85742
		c0-0.57617-0.32324-1.22363-1.09717-1.22363C129.74316,48.91309,129.33545,49.56055,129.33545,50.29199z"/>
	<path class="st3" d="M139.05615,56.43945c0.36572,0.23926,1.0127,0.49316,1.63184,0.49316
		c0.90039,0,1.32227-0.4502,1.32227-1.01367c0-0.59082-0.35156-0.91406-1.26611-1.25195
		c-1.22412-0.43555-1.80078-1.11133-1.80078-1.92676c0-1.09766,0.88623-1.99805,2.34961-1.99805
		c0.68945,0,1.29395,0.19727,1.67383,0.42188l-0.30908,0.90039c-0.26758-0.16895-0.75977-0.39355-1.39307-0.39355
		c-0.73145,0-1.13965,0.42188-1.13965,0.92871c0,0.5625,0.4082,0.81543,1.29443,1.15332
		c1.18164,0.4502,1.78662,1.04102,1.78662,2.05371c0,1.19629-0.92822,2.04004-2.54639,2.04004
		c-0.74561,0-1.43506-0.18262-1.91309-0.46387L139.05615,56.43945z"/>
	<path class="st3" d="M144.79541,53.12012c0-0.87305-0.02783-1.57617-0.05615-2.22363h1.11133l0.05664,1.16797h0.02832
		c0.50586-0.83008,1.30762-1.32227,2.41895-1.32227c1.64648,0,2.88477,1.39258,2.88477,3.46094
		c0,2.44824-1.49121,3.65723-3.0957,3.65723c-0.90039,0-1.6875-0.39355-2.0957-1.06836h-0.02832v3.69922h-1.22412V53.12012z
		 M146.01953,54.93457c0,0.18262,0.02832,0.35156,0.05664,0.50684c0.22461,0.85742,0.9707,1.44824,1.85645,1.44824
		c1.30859,0,2.06836-1.06836,2.06836-2.63086c0-1.36426-0.71777-2.53223-2.02637-2.53223
		c-0.84375,0-1.63184,0.60547-1.87109,1.53418c-0.04199,0.1543-0.08398,0.33691-0.08398,0.50586V54.93457z"/>
	<path class="st3" d="M153.48926,54.52637c0.02734,1.6748,1.09668,2.36328,2.33496,2.36328c0.88672,0,1.4209-0.1543,1.88477-0.35156
		l0.21191,0.88672c-0.43652,0.19727-1.18262,0.42188-2.26563,0.42188c-2.0957,0-3.34863-1.37891-3.34863-3.43262
		s1.20996-3.67188,3.19434-3.67188c2.22266,0,2.81348,1.95508,2.81348,3.20801c0,0.25293-0.02832,0.4502-0.04199,0.57617H153.48926z
		 M157.11816,53.64063c0.01465-0.78809-0.32324-2.01172-1.71582-2.01172c-1.25195,0-1.80078,1.15332-1.89941,2.01172H157.11816z"/>
	<path class="st3" d="M160.53711,54.52637c0.02734,1.6748,1.09668,2.36328,2.33496,2.36328c0.88672,0,1.4209-0.1543,1.88477-0.35156
		l0.21191,0.88672c-0.43652,0.19727-1.18262,0.42188-2.26563,0.42188c-2.0957,0-3.34863-1.37891-3.34863-3.43262
		s1.20996-3.67188,3.19434-3.67188c2.22266,0,2.81348,1.95508,2.81348,3.20801c0,0.25293-0.02832,0.4502-0.04199,0.57617H160.53711z
		 M164.16602,53.64063c0.01465-0.78809-0.32324-2.01172-1.71582-2.01172c-1.25195,0-1.80078,1.15332-1.89941,2.01172H164.16602z"/>
	<path class="st3" d="M171.74902,57.45313c-0.32422,0.16895-1.04102,0.39355-1.95605,0.39355
		c-2.05371,0-3.39063-1.39258-3.39063-3.47461c0-2.09668,1.43555-3.61621,3.6582-3.61621c0.73145,0,1.37891,0.18359,1.7168,0.35156
		l-0.28125,0.95703c-0.2959-0.16895-0.75977-0.32324-1.43555-0.32324c-1.56152,0-2.40527,1.15332-2.40527,2.57422
		c0,1.57617,1.0127,2.54688,2.36328,2.54688c0.70313,0,1.16797-0.18359,1.51953-0.33789L171.74902,57.45313z"/>
	<path class="st3" d="M173.19824,47.71777h1.2373v4.24805h0.02832c0.19727-0.35156,0.50684-0.66113,0.88672-0.87207
		c0.36523-0.21094,0.80176-0.35156,1.26563-0.35156c0.91504,0,2.37793,0.5625,2.37793,2.91211v4.05176h-1.23828v-3.91113
		c0-1.09766-0.4082-2.02539-1.5752-2.02539c-0.80176,0-1.43555,0.5625-1.66016,1.2373
		c-0.07031,0.16895-0.08496,0.35156-0.08496,0.59082v4.1084h-1.2373V47.71777z"/>
	<path class="st3" d="M183.98828,53.02148c0-0.80176-0.01465-1.49121-0.05664-2.125h1.08301l0.04297,1.33691h0.05566
		c0.30957-0.91406,1.05566-1.49121,1.88574-1.49121c0.14063,0,0.23926,0.01367,0.35156,0.04199v1.16797
		c-0.12695-0.02832-0.25391-0.04199-0.42188-0.04199c-0.87305,0-1.49121,0.66113-1.66016,1.58984
		c-0.02832,0.16797-0.05664,0.36523-0.05664,0.57617v3.62988h-1.22363V53.02148z"/>
	<path class="st3" d="M189.13867,54.52637c0.02734,1.6748,1.09668,2.36328,2.33496,2.36328c0.88672,0,1.4209-0.1543,1.88477-0.35156
		l0.21191,0.88672c-0.43652,0.19727-1.18262,0.42188-2.26563,0.42188c-2.0957,0-3.34863-1.37891-3.34863-3.43262
		s1.20996-3.67188,3.19434-3.67188c2.22266,0,2.81348,1.95508,2.81348,3.20801c0,0.25293-0.02832,0.4502-0.04199,0.57617H189.13867z
		 M192.76758,53.64063c0.01465-0.78809-0.32324-2.01172-1.71582-2.01172c-1.25195,0-1.80078,1.15332-1.89941,2.01172H192.76758z"/>
	<path class="st3" d="M200.34961,57.45313c-0.32422,0.16895-1.04102,0.39355-1.95605,0.39355
		c-2.05371,0-3.39063-1.39258-3.39063-3.47461c0-2.09668,1.43555-3.61621,3.6582-3.61621c0.73145,0,1.37891,0.18359,1.7168,0.35156
		l-0.28223,0.95703c-0.29492-0.16895-0.75879-0.32324-1.43457-0.32324c-1.56152,0-2.40527,1.15332-2.40527,2.57422
		c0,1.57617,1.0127,2.54688,2.36328,2.54688c0.70313,0,1.16797-0.18359,1.51953-0.33789L200.34961,57.45313z"/>
	<path class="st3" d="M207.87695,54.24512c0,2.51855-1.74512,3.61523-3.39063,3.61523c-1.84375,0-3.26465-1.35059-3.26465-3.50293
		c0-2.2793,1.49121-3.61523,3.37695-3.61523C206.55371,50.74219,207.87695,52.16309,207.87695,54.24512z M202.47461,54.31543
		c0,1.49121,0.85742,2.61719,2.06738,2.61719c1.18164,0,2.06836-1.11133,2.06836-2.64551c0-1.15332-0.57715-2.61621-2.04004-2.61621
		S202.47461,53.02148,202.47461,54.31543z"/>
	<path class="st3" d="M215.30469,50.89648c-0.02832,0.49316-0.05664,1.04102-0.05664,1.87109v3.9541
		c0,1.56152-0.30859,2.51758-0.9707,3.1084c-0.66113,0.61914-1.61719,0.81641-2.47559,0.81641
		c-0.81641,0-1.7168-0.19727-2.26465-0.5625l0.30859-0.94336c0.4502,0.28223,1.1543,0.53516,1.99805,0.53516
		c1.2666,0,2.19531-0.66113,2.19531-2.37793v-0.75977h-0.02832c-0.37988,0.63379-1.11133,1.13965-2.16699,1.13965
		c-1.68848,0-2.89844-1.43457-2.89844-3.32031c0-2.30664,1.50586-3.61523,3.06738-3.61523c1.18164,0,1.8291,0.61914,2.12402,1.18164
		h0.02832l0.05664-1.02734H215.30469z M214.02441,53.58398c0-0.21094-0.01367-0.39355-0.07031-0.5625
		c-0.22461-0.71777-0.83008-1.30859-1.73047-1.30859c-1.18164,0-2.02539,0.99902-2.02539,2.57422
		c0,1.33691,0.6748,2.44824,2.01172,2.44824c0.75977,0,1.44922-0.47852,1.71582-1.2666
		c0.07031-0.21094,0.09863-0.4502,0.09863-0.66113V53.58398z"/>
	<path class="st3" d="M217.21875,52.74023c0-0.7041-0.01465-1.28027-0.05664-1.84375h1.09766l0.07031,1.12598h0.02832
		c0.33691-0.64746,1.125-1.28027,2.25098-1.28027c0.94238,0,2.40527,0.5625,2.40527,2.89844v4.06543h-1.23828v-3.9248
		c0-1.09766-0.40723-2.01172-1.5752-2.01172c-0.81641,0-1.44922,0.57617-1.66016,1.26563
		c-0.05664,0.15527-0.08496,0.36621-0.08496,0.57715v4.09375h-1.2373V52.74023z"/>
	<path class="st3" d="M226.4043,48.9834c0.01465,0.42188-0.29492,0.75977-0.78711,0.75977
		c-0.43652,0-0.74609-0.33789-0.74609-0.75977c0-0.43555,0.32422-0.77344,0.77441-0.77344
		C226.10938,48.20996,226.4043,48.54785,226.4043,48.9834z M225.02637,57.70605v-6.80957h1.2373v6.80957H225.02637z"/>
	<path class="st3" d="M229.80957,48.94141v1.95508h1.77246v0.94336h-1.77246v3.67188c0,0.84375,0.23926,1.32227,0.92871,1.32227
		c0.32324,0,0.5625-0.04199,0.7168-0.08496l0.05664,0.92871c-0.23926,0.09863-0.61914,0.16895-1.09766,0.16895
		c-0.57617,0-1.04102-0.18262-1.33594-0.52051c-0.35254-0.36621-0.47852-0.9707-0.47852-1.77246v-3.71387h-1.05566v-0.94336h1.05566
		v-1.63184L229.80957,48.94141z"/>
	<path class="st3" d="M234.35254,48.9834c0.01465,0.42188-0.29492,0.75977-0.78711,0.75977
		c-0.43652,0-0.74609-0.33789-0.74609-0.75977c0-0.43555,0.32422-0.77344,0.77441-0.77344
		C234.05762,48.20996,234.35254,48.54785,234.35254,48.9834z M232.97461,57.70605v-6.80957h1.2373v6.80957H232.97461z"/>
	<path class="st3" d="M242.42871,54.24512c0,2.51855-1.74512,3.61523-3.39063,3.61523c-1.84375,0-3.26465-1.35059-3.26465-3.50293
		c0-2.2793,1.49219-3.61523,3.37695-3.61523C241.10547,50.74219,242.42871,52.16309,242.42871,54.24512z M237.02637,54.31543
		c0,1.49121,0.85742,2.61719,2.06738,2.61719c1.18164,0,2.06836-1.11133,2.06836-2.64551c0-1.15332-0.57715-2.61621-2.04004-2.61621
		S237.02637,53.02148,237.02637,54.31543z"/>
	<path class="st3" d="M243.99023,52.74023c0-0.7041-0.01465-1.28027-0.05664-1.84375h1.09766l0.07031,1.12598h0.02832
		c0.33691-0.64746,1.125-1.28027,2.25098-1.28027c0.94238,0,2.40527,0.5625,2.40527,2.89844v4.06543h-1.23828v-3.9248
		c0-1.09766-0.40723-2.01172-1.5752-2.01172c-0.81641,0-1.44922,0.57617-1.66016,1.26563
		c-0.05664,0.15527-0.08496,0.36621-0.08496,0.57715v4.09375h-1.2373V52.74023z"/>
</g>
<g>
</g>
<g>
</g>
<g>
</g>
<g>
</g>
<g>
</g>
</svg>
